<svg id="Layer_1" xmlns="http://www.w3.org/2000/svg" viewBox="-429 218 100 125"><style>.st0{fill:none;} .st1{fill:#008283;} .st2{fill:#74D0CC;}</style><path class="st0" d="M-391.5 288.7c-.8-.5-1.1-1.5-.6-2.2s1.5-1.1 2.2-.6l9.1 5.3V280c0-.9.7-1.6 1.6-1.6s1.6.7 1.6 1.6v4.4l4-2.3c.8-.5 1.8-.2 2.2.6.5.8.2 1.8-.6 2.2l-4.1 2.4-1.5.9v16.9c14.9-.6 26.8-9.7 26.8-20.7 0-5.5-3-17.3-8.6-28.2-3.6-7-10.9-18.7-19.8-18.7s-16.2 11.7-19.8 18.7c-5.6 10.9-8.6 22.6-8.6 28.2 0 11 11.8 20.1 26.7 20.7v-10.2l-10.6-6.2z"/><path class="st1" d="M-347.3 284.4c0-7.1-3.8-19.5-9-29.7-3.9-7.7-12.1-20.5-22.7-20.5s-18.8 12.9-22.7 20.5c-5.2 10.1-9 22.6-9 29.7 0 12.8 13.3 23.4 30 24v20.2c0 .9.7 1.6 1.6 1.6s1.6-.7 1.6-1.6v-20.2c16.8-.6 30.2-11.1 30.2-24zm-60.1 0c0-5.5 3-17.3 8.6-28.2 3.6-7 10.9-18.7 19.8-18.7s16.2 11.7 19.8 18.7c5.6 10.9 8.6 22.6 8.6 28.2 0 11.1-11.9 20.1-26.8 20.7v-16.9l1.5-.9 4.1-2.4c.8-.5 1.1-1.5.6-2.2-.5-.8-1.5-1.1-2.2-.6l-4 2.3V280c0-.9-.7-1.6-1.6-1.6s-1.6.7-1.6 1.6v11.1l-9.1-5.3c-.8-.5-1.8-.2-2.2.6-.5.8-.2 1.8.6 2.2l10.8 6.2V305c-15.1-.5-26.9-9.6-26.9-20.6z"/><path class="st2" d="M-407.4 284.4c0-5.5 3-17.3 8.6-28.2 3.6-7 10.9-18.7 19.8-18.7s16.2 11.7 19.8 18.7c5.6 10.9 8.6 22.6 8.6 28.2 0 11.1-11.9 20.1-26.8 20.7v-16.9l1.5-.9 4.1-2.4c.8-.5 1.1-1.5.6-2.2-.5-.8-1.5-1.1-2.2-.6l-4 2.3V280c0-.9-.7-1.6-1.6-1.6s-1.6.7-1.6 1.6v11.1l-9.1-5.3c-.8-.5-1.8-.2-2.2.6-.5.8-.2 1.8.6 2.2l10.8 6.2V305c-15.1-.5-26.9-9.6-26.9-20.6z"/></svg>